<svg width="120" height="40" viewBox="0 0 120 40" fill="none" xmlns="http://www.w3.org/2000/svg">
<path d="M110.135 -0.000114141H9.53468C9.16798 -0.000114141 8.80568 -0.000114141 8.43995 0.00188586C8.1338 0.00388586 7.83009 0.00969586 7.521 0.0145859C6.84951 0.0224877 6.17961 0.0815621 5.5171 0.191296C4.85552 0.303418 4.21467 0.514802 3.61622 0.818296C3.0185 1.12436 2.47235 1.52205 1.99757 1.99696C1.5203 2.47052 1.12246 3.0179 0.81935 3.61805C0.5154 4.21699 0.304641 4.85882 0.19435 5.52137C0.0830109 6.18307 0.0230984 6.85241 0.01515 7.52337C0.00587 7.82997 0.00489 8.13759 0 8.44423V31.5585C0.00489 31.869 0.00587 32.1698 0.01515 32.4804C0.0231008 33.1513 0.0830134 33.8206 0.19435 34.4823C0.304336 35.1452 0.515108 35.7874 0.81935 36.3866C1.12233 36.9848 1.52022 37.53 1.99757 38.0009C2.47054 38.4779 3.01705 38.8759 3.61622 39.1796C4.21467 39.4839 4.85545 39.6965 5.5171 39.8104C6.17972 39.9192 6.84956 39.9783 7.521 39.9872C7.83009 39.994 8.1338 39.9979 8.43995 39.9979C8.80567 39.9999 9.168 39.9999 9.53468 39.9999H110.135C110.494 39.9999 110.859 39.9999 111.219 39.9979C111.523 39.9979 111.836 39.994 112.141 39.9872C112.811 39.9788 113.479 39.9197 114.141 39.8104C114.804 39.6957 115.448 39.4831 116.049 39.1796C116.647 38.8757 117.193 38.4777 117.666 38.0009C118.142 37.5281 118.541 36.9833 118.848 36.3866C119.15 35.787 119.358 35.1448 119.467 34.4823C119.578 33.8205 119.64 33.1514 119.652 32.4804C119.656 32.1698 119.656 31.869 119.656 31.5585C119.664 31.1952 119.664 30.8339 119.664 30.4647V9.53602C119.664 9.16981 119.664 8.80653 119.656 8.44423C119.656 8.13759 119.656 7.82997 119.652 7.52333C119.64 6.85231 119.578 6.18312 119.467 5.52133C119.358 4.85917 119.149 4.21739 118.848 3.61801C118.23 2.41508 117.252 1.43591 116.049 0.818206C115.448 0.515453 114.804 0.304126 114.141 0.191206C113.48 0.0809886 112.811 0.0218936 112.141 0.0144459C111.836 0.00956586 111.523 0.00370586 111.219 0.00175586C110.859 -0.000244141 110.494 -0.000244141 110.135 -0.000244141V-0.000114141Z" fill="#A6A6A6"/>
<path d="M8.44484 39.125C8.14016 39.125 7.84284 39.1211 7.54055 39.1143C6.91433 39.1061 6.28957 39.0516 5.67141 38.9512C5.095 38.8519 4.53661 38.6673 4.01467 38.4033C3.49751 38.1415 3.02582 37.7983 2.61767 37.3867C2.20361 36.98 1.85888 36.5082 1.59716 35.9902C1.33255 35.4688 1.14942 34.9099 1.05416 34.333C0.951281 33.7131 0.895621 33.0863 0.887656 32.458C0.881316 32.2471 0.873016 31.5449 0.873016 31.5449V8.44434C0.873016 8.44434 0.881856 7.75293 0.887706 7.5498C0.895332 6.92248 0.950669 6.29665 1.05324 5.67773C1.14868 5.09925 1.33194 4.53875 1.5967 4.01563C1.85746 3.49794 2.20027 3.02586 2.61184 2.61768C3.02294 2.20562 3.49614 1.8606 4.01418 1.59521C4.53492 1.33209 5.09225 1.14873 5.6675 1.05127C6.28769 0.949836 6.91462 0.894996 7.54301 0.88721L8.44533 0.875H111.214L112.127 0.8877C112.75 0.895099 113.371 0.94945 113.985 1.05029C114.566 1.14898 115.13 1.33362 115.656 1.59814C116.694 2.13299 117.539 2.97916 118.071 4.01807C118.332 4.53758 118.512 5.09351 118.606 5.66699C118.71 6.29099 118.768 6.92174 118.78 7.5542C118.783 7.8374 118.783 8.1416 118.783 8.44434C118.791 8.81934 118.791 9.17627 118.791 9.53613V30.4648C118.791 30.8281 118.791 31.1826 118.783 31.54C118.783 31.8652 118.783 32.1631 118.779 32.4697C118.768 33.0909 118.71 33.7104 118.608 34.3232C118.515 34.9043 118.333 35.4675 118.068 35.9932C117.805 36.5056 117.462 36.9733 117.053 37.3789C116.644 37.7927 116.172 38.1379 115.653 38.4014C115.128 38.6674 114.566 38.8527 113.985 38.9512C113.367 39.0522 112.742 39.1067 112.116 39.1143C111.823 39.1211 111.517 39.125 111.219 39.125L110.135 39.127L8.44484 39.125Z" fill="black"/>
<path d="M24.7689 20.3011C24.7796 19.4664 25.0013 18.648 25.4134 17.9221C25.8254 17.1961 26.4143 16.5862 27.1254 16.149C26.6737 15.5038 26.0777 14.9729 25.3849 14.5983C24.6921 14.2238 23.9215 14.016 23.1343 13.9913C21.455 13.8151 19.8271 14.9962 18.9714 14.9962C18.0991 14.9962 16.7816 14.0088 15.3629 14.038C14.4452 14.0677 13.5509 14.3345 12.767 14.8126C11.9831 15.2906 11.3364 15.9636 10.89 16.7659C8.95595 20.1143 10.3985 25.0354 12.2511 27.742C13.178 29.0673 14.2613 30.5478 15.6788 30.4953C17.0658 30.4377 17.5839 29.6108 19.2582 29.6108C20.9169 29.6108 21.403 30.4953 22.8492 30.4619C24.3376 30.4377 25.2753 29.1306 26.1697 27.7927C26.8357 26.8484 27.3481 25.8047 27.6881 24.7002C26.8234 24.3345 26.0855 23.7223 25.5664 22.94C25.0472 22.1577 24.7699 21.2399 24.7689 20.3011Z" fill="white"/>
<path d="M22.0372 12.2113C22.8488 11.2371 23.2486 9.98494 23.1518 8.7207C21.9119 8.85092 20.7667 9.44348 19.9442 10.3803C19.542 10.838 19.234 11.3704 19.0378 11.9472C18.8415 12.524 18.7609 13.1337 18.8005 13.7417C19.4206 13.7481 20.0341 13.6137 20.5948 13.3486C21.1554 13.0835 21.6486 12.6946 22.0372 12.2113Z" fill="white"/>
<path d="M42.3022 27.1397H37.5688L36.4321 30.4961H34.4272L38.9106 18.0781H40.9936L45.477 30.4961H43.438L42.3022 27.1397ZM38.0591 25.5908H41.8111L39.9615 20.1436H39.9097L38.0591 25.5908Z" fill="white"/>
<path d="M55.1597 25.9695C55.1597 28.7829 53.6538 30.5905 51.3813 30.5905C50.8057 30.6207 50.2332 30.4881 49.7294 30.2079C49.2256 29.9278 48.8109 29.5114 48.5327 29.0065H48.4897V33.4909H46.6313V21.4421H48.4302V22.948H48.4644C48.7553 22.4455 49.177 22.0313 49.6847 21.7495C50.1923 21.4676 50.7668 21.3287 51.3472 21.3474C53.645 21.3474 55.1597 23.1638 55.1597 25.9695ZM53.2495 25.9695C53.2495 24.1365 52.3022 22.9314 50.8569 22.9314C49.437 22.9314 48.4819 24.1618 48.4819 25.9695C48.4819 27.7937 49.437 29.0154 50.8569 29.0154C52.3022 29.0154 53.2495 27.8191 53.2495 25.9695Z" fill="white"/>
<path d="M65.1245 25.9694C65.1245 28.7829 63.6187 30.5905 61.3462 30.5905C60.7705 30.6206 60.198 30.488 59.6942 30.2079C59.1905 29.9278 58.7757 29.5114 58.4976 29.0065H58.4546V33.4909H56.5962V21.4421H58.395V22.948H58.4292C58.7201 22.4455 59.1418 22.0313 59.6495 21.7495C60.1571 21.4676 60.7317 21.3287 61.312 21.3474C63.6099 21.3474 65.1245 23.1638 65.1245 25.9694ZM63.2144 25.9694C63.2144 24.1364 62.2671 22.9314 60.8218 22.9314C59.4018 22.9314 58.4468 24.1618 58.4468 25.9694C58.4468 27.7937 59.4018 29.0153 60.8218 29.0153C62.2671 29.0153 63.2144 27.8191 63.2144 25.9694H63.2144Z" fill="white"/>
<path d="M71.7104 27.0362C71.8481 28.2676 73.0444 29.0762 74.6792 29.0762C76.2456 29.0762 77.3726 28.2676 77.3726 27.1572C77.3726 26.1934 76.6929 25.6162 75.0835 25.2207L73.4741 24.833C71.1939 24.2822 70.1353 23.2158 70.1353 21.4854C70.1353 19.3428 72.0024 17.8711 74.6538 17.8711C77.2778 17.8711 79.0767 19.3428 79.1372 21.4854H77.2612C77.1489 20.2461 76.1245 19.4981 74.6274 19.4981C73.1303 19.4981 72.1059 20.2549 72.1059 21.3565C72.1059 22.2344 72.7602 22.751 74.3608 23.1465L75.729 23.4824C78.2768 24.0849 79.3354 25.1084 79.3354 26.9248C79.3354 29.248 77.4848 30.7031 74.5415 30.7031C71.7876 30.7031 69.9282 29.2822 69.8081 27.0361L71.7104 27.0362Z" fill="white"/>
<path d="M83.3462 19.2998V21.4424H85.0679V22.9141H83.3462V27.9053C83.3462 28.6807 83.6909 29.042 84.4477 29.042C84.6521 29.0384 84.8562 29.0241 85.0591 28.999V30.4619C84.7188 30.5255 84.3729 30.5543 84.0268 30.5478C82.1938 30.5478 81.479 29.8593 81.479 28.1035V22.9141H80.1626V21.4424H81.479V19.2998H83.3462Z" fill="white"/>
<path d="M86.065 25.9697C86.065 23.1211 87.7427 21.3311 90.3589 21.3311C92.9839 21.3311 94.6538 23.1211 94.6538 25.9697C94.6538 28.8262 92.9927 30.6084 90.3589 30.6084C87.7261 30.6084 86.065 28.8262 86.065 25.9697ZM92.7603 25.9697C92.7603 24.0156 91.8648 22.8623 90.3589 22.8623C88.853 22.8623 87.9585 24.0244 87.9585 25.9697C87.9585 27.9316 88.853 29.0762 90.3589 29.0762C91.8648 29.0762 92.7602 27.9316 92.7602 25.9697H92.7603Z" fill="white"/>
<path d="M96.186 21.442H97.9585V22.983H98.0015C98.1214 22.5017 98.4034 22.0764 98.8 21.7785C99.1966 21.4806 99.6836 21.3284 100.179 21.3473C100.393 21.3465 100.607 21.3698 100.816 21.4166V23.1549C100.546 23.0723 100.264 23.0343 99.981 23.0426C99.711 23.0316 99.4418 23.0792 99.192 23.1821C98.9421 23.285 98.7175 23.4408 98.5335 23.6386C98.3496 23.8365 98.2106 24.0719 98.1262 24.3286C98.0417 24.5852 98.0139 24.8571 98.0444 25.1256V30.4957H96.186L96.186 21.442Z" fill="white"/>
<path d="M109.384 27.8369C109.134 29.4805 107.534 30.6084 105.486 30.6084C102.852 30.6084 101.217 28.8437 101.217 26.0127C101.217 23.1729 102.861 21.3311 105.408 21.3311C107.913 21.3311 109.488 23.0518 109.488 25.7969V26.4336H103.093V26.5459C103.064 26.8791 103.105 27.2148 103.216 27.5306C103.326 27.8464 103.502 28.1352 103.732 28.3778C103.963 28.6203 104.242 28.8111 104.552 28.9374C104.861 29.0637 105.195 29.1226 105.529 29.1103C105.968 29.1515 106.409 29.0498 106.785 28.8203C107.162 28.5909 107.455 28.246 107.62 27.8369L109.384 27.8369ZM103.102 25.1348H107.628C107.645 24.8352 107.6 24.5354 107.495 24.2541C107.39 23.9729 107.229 23.7164 107.02 23.5006C106.812 23.2849 106.561 23.1145 106.283 23.0003C106.006 22.8861 105.708 22.8305 105.408 22.8369C105.105 22.8351 104.805 22.8933 104.525 23.008C104.245 23.1227 103.99 23.2918 103.776 23.5054C103.562 23.7191 103.392 23.973 103.276 24.2527C103.16 24.5323 103.101 24.8321 103.102 25.1348V25.1348Z" fill="white"/>
</svg>
