<svg width="65" height="64" viewBox="0 0 65 64" fill="none" xmlns="http://www.w3.org/2000/svg">
<path opacity="0.5" d="M46.9283 2.07106C53.228 -4.22859 63.9994 0.233087 63.9994 9.14214L63.9994 28C63.9994 33.5229 59.5222 38 53.9994 38L35.1415 38C26.2324 38 21.7708 27.2286 28.0704 20.9289L46.9283 2.07106Z" fill="#15803D"/>
<path d="M53.6667 53.3333L11 40M53.6667 53.3333H11V40L53.6667 53.3333ZM53.6667 53.3333V32C53.6667 20.2179 44.1155 10.6666 32.3333 10.6666C30.2152 10.6666 28.1693 10.9753 26.2381 11.5501C17.426 14.1727 11 22.3359 11 32V40L53.6667 53.3333Z" stroke="#78350F" stroke-width="1.5" stroke-linecap="round" stroke-linejoin="round"/>
<path d="M43 24V26.6667" stroke="#78350F" stroke-width="1.5" stroke-linecap="round"/>
<path d="M32.3333 21.3334V24" stroke="#78350F" stroke-width="1.5" stroke-linecap="round"/>
<path d="M21.6667 18.6666V21.3333" stroke="#78350F" stroke-width="1.5" stroke-linecap="round"/>
</svg>
